<svg width="103" height="99" viewBox="0 0 103 99" fill="none" xmlns="http://www.w3.org/2000/svg">
<rect x="3.64307" y="3.64282" width="95.7143" height="91.7143" rx="45.8571" fill="#F0F2F0"/>
<path d="M52 36.5L24.5 52.5L51.4999 67.5002L78.5 52.5002L67.4049 45.3384L64.5 48.5L70.5 52.0002L51.5 62.5L33 52.5L51.5 42L52.5 42.5L56 39L52 36.5ZM28 59.2228L24.5 61L51.5 75.5L77.257 61.5544L73.5 59.7772L51.5266 71.5002L28 59.2228Z" fill="#528152"/>
<path d="M73 24C73 24 72.4283 24.5273 72.1252 24.8302L53.2283 43.7271C53.0709 43.8845 52.9526 44.0669 52.8739 44.2618L51 52V53H52L59.7377 51.1257C59.9326 51.047 60.115 50.9292 60.2725 50.7712L79.1693 31.8743C79.4724 31.5713 80 31 80 31L73 24ZM73 28.5L75.5 31L58 48.5L54.0001 50L55.5 46L73 28.5Z" fill="#528152"/>
<rect x="3.64307" y="3.64282" width="95.7143" height="91.7143" rx="45.8571" stroke="#528152" stroke-width="7"/>
</svg>
