<svg width="16" height="16" viewBox="0 0 16 16" fill="none" xmlns="http://www.w3.org/2000/svg">
<path fill-rule="evenodd" clip-rule="evenodd" d="M8.02542 0L16 4.9378L15.4128 10.2958L14.8257 15.6538H1.3211L0 4.9378L8.02542 0ZM0.826573 5.22706L2.20183 14.544H13.7982L15.2243 5.22706L8.02542 0.745843L0.826573 5.22706Z" fill="#A54E15"/>
<path d="M6.66765 10.3905C6.66765 10.6919 6.6332 10.9717 6.56431 11.2301C6.49542 11.4884 6.38347 11.7382 6.22846 11.9793C6.08206 12.2118 5.86246 12.397 5.56967 12.5348C5.27687 12.6725 4.9281 12.7414 4.52336 12.7414C3.91193 12.7414 3.43399 12.6209 3.08952 12.3797C2.75367 12.13 2.58574 11.8631 2.58574 11.5789C2.58574 11.3808 2.63741 11.2258 2.74075 11.1138C2.84409 10.9933 2.97757 10.933 3.14119 10.933C3.2962 10.933 3.42968 10.9717 3.54163 11.0493C3.66219 11.1268 3.72247 11.2387 3.72247 11.3851C3.72247 11.6779 3.61483 11.8587 3.39954 11.9276C3.63205 12.1602 3.9636 12.2764 4.39418 12.2764C4.59225 12.2764 4.76017 12.242 4.89796 12.1731C5.03575 12.0956 5.14339 12.0008 5.2209 11.8889C5.2984 11.7683 5.35438 11.6004 5.38882 11.3851C5.43188 11.1612 5.45772 10.9502 5.46633 10.7522C5.47494 10.5455 5.47925 10.2699 5.47925 9.92544V5.58518C5.40174 5.41295 5.13048 5.32683 4.66545 5.32683V5.05557H7.48145V5.32683C7.01642 5.32683 6.74515 5.41295 6.66765 5.58518V10.3905Z" fill="#A54E15"/>
<path d="M13.2861 12.7825H7.70578L11.8135 5.61336H8.67459C8.50236 5.69087 8.41624 5.96213 8.41624 6.42716H8.14498V5.22584H13.3507L9.24296 12.395H12.7565C13.0235 12.2831 13.2215 11.9989 13.3507 11.5425H13.622L13.2861 12.7825Z" fill="#A54E15"/>
</svg>
