<svg width="73" height="13" viewBox="0 0 73 13" fill="none" xmlns="http://www.w3.org/2000/svg">
<path d="M16.4555 4.97254C15.8872 4.97254 15.4147 5.20713 15.038 5.67632C14.6613 6.14551 14.473 6.75347 14.473 7.5002C14.473 8.3725 14.6712 9.05645 15.0677 9.55207C15.4642 10.0477 15.94 10.2955 16.4951 10.2955C16.8255 10.2955 17.1526 10.1832 17.4764 9.95848C17.8002 9.72719 18.0084 9.48269 18.1009 9.22496L18.3388 9.34391C18.1868 9.70737 17.9456 10.0147 17.6152 10.2658C17.2914 10.5103 16.852 10.6325 16.2969 10.6325C15.418 10.6325 14.7208 10.3484 14.2053 9.78006C13.6965 9.20514 13.4421 8.51788 13.4421 7.71828C13.4421 6.79312 13.7362 6.04969 14.3243 5.48798C14.919 4.91967 15.6261 4.63552 16.4456 4.63552C16.6372 4.63552 16.8586 4.68508 17.1097 4.7842C17.3608 4.88333 17.5062 4.93289 17.5458 4.93289C17.6251 4.93289 17.6648 4.86681 17.6648 4.73464H17.8928L17.9919 5.99352H17.7738C17.7276 5.69614 17.5954 5.45164 17.3773 5.26C17.1659 5.06836 16.8586 4.97254 16.4555 4.97254Z" fill="#F0F2F0"/>
<path d="M19.702 6.90546C19.7945 6.90546 19.8738 6.9385 19.9399 7.00458C20.0126 7.07067 20.049 7.17309 20.049 7.31187C20.049 7.42421 20.0027 7.51012 19.9102 7.56959C19.8243 7.62907 19.7218 7.6588 19.6029 7.6588C19.4773 7.6588 19.3749 7.61585 19.2956 7.52994C19.2163 7.43743 19.1767 7.31517 19.1767 7.16318C19.1767 6.81955 19.3187 6.55192 19.6029 6.36028C19.887 6.16864 20.2902 6.07282 20.8122 6.07282C21.4268 6.07282 21.8761 6.22481 22.1603 6.52879C22.4511 6.83277 22.5964 7.23587 22.5964 7.7381V9.70076C22.5964 9.91222 22.6295 10.0675 22.6956 10.1666C22.7683 10.2658 22.8542 10.3153 22.9533 10.3153C23.0392 10.3153 23.1152 10.2922 23.1813 10.2459C23.254 10.1997 23.2903 10.1435 23.2903 10.0774H23.4687C23.4687 10.2625 23.3993 10.3979 23.2606 10.4838C23.1284 10.5697 22.8938 10.6127 22.5568 10.6127C22.2264 10.6127 21.9918 10.4772 21.853 10.2063C21.4631 10.4904 20.9774 10.6325 20.3959 10.6325C19.4046 10.6325 18.909 10.2294 18.909 9.42321C18.909 9.2514 18.9685 9.0961 19.0874 8.95733C19.213 8.81856 19.3914 8.70291 19.6227 8.61039C19.854 8.51788 20.0721 8.44519 20.2769 8.39232C20.4818 8.33285 20.7362 8.27007 21.0402 8.20399C21.3508 8.13129 21.5722 8.07512 21.7043 8.03547C21.7043 7.48038 21.6316 7.07397 21.4862 6.81625C21.3409 6.55852 21.0831 6.42966 20.7131 6.42966C20.1183 6.42966 19.7813 6.58826 19.702 6.90546ZM21.7638 9.95848C21.7241 9.8131 21.7043 9.63468 21.7043 9.42321V8.25355C21.6316 8.27998 21.5061 8.31633 21.3277 8.36258C21.1558 8.40884 21.0138 8.44849 20.9014 8.48153C20.7957 8.51457 20.6668 8.56414 20.5148 8.63022C20.3628 8.6963 20.2439 8.76238 20.158 8.82847C20.0721 8.89455 19.9961 8.98376 19.93 9.0961C19.8639 9.20184 19.8309 9.31748 19.8309 9.44304C19.8309 9.76023 19.8904 9.98161 20.0093 10.1072C20.1349 10.2327 20.3199 10.2955 20.5644 10.2955C21.0005 10.2955 21.4003 10.1832 21.7638 9.95848Z" fill="#F0F2F0"/>
<path d="M23.6908 10.5334V10.3252C24.0476 10.3252 24.2558 10.2592 24.3152 10.127V6.7766C23.9055 6.74356 23.6974 6.72704 23.6908 6.72704V6.49905C23.8163 6.49905 24.0608 6.42966 24.4243 6.29089C24.7943 6.14551 25.0554 6.07282 25.2074 6.07282V6.50896C25.5378 6.2182 25.8649 6.07282 26.1887 6.07282C26.4861 6.07282 26.7339 6.12899 26.9321 6.24133C27.137 6.35367 27.2394 6.47923 27.2394 6.618C27.2394 6.8559 27.1072 6.97485 26.8429 6.97485C26.7041 6.97485 26.5786 6.88233 26.4662 6.6973C26.3539 6.50566 26.225 6.40984 26.0796 6.40984C25.8219 6.40984 25.5312 6.55192 25.2074 6.83607V10.127C25.2668 10.2592 25.475 10.3252 25.8318 10.3252V10.5334H23.6908Z" fill="#F0F2F0"/>
<path d="M27.5123 12.4366V12.2284C27.8691 12.2284 28.0773 12.1623 28.1368 12.0302V6.7766C28.1368 6.7766 27.9286 6.76008 27.5123 6.72704V6.49905C27.6379 6.49905 27.8824 6.42966 28.2458 6.29089C28.6159 6.14551 28.8769 6.07282 29.0289 6.07282V6.39993C29.3461 6.18185 29.7426 6.07282 30.2184 6.07282C30.4365 6.07282 30.6512 6.11247 30.8627 6.19177C31.0808 6.26446 31.2955 6.38341 31.507 6.54861C31.7251 6.70721 31.9002 6.94511 32.0324 7.26231C32.1711 7.5795 32.2405 7.94957 32.2405 8.3725C32.2405 9.10602 32.0357 9.66772 31.626 10.0576C31.2162 10.4409 30.6744 10.6325 30.0003 10.6325C29.617 10.6325 29.2932 10.5598 29.0289 10.4145V12.0302C29.0884 12.1623 29.2965 12.2284 29.6534 12.2284V12.4366H27.5123ZM29.0289 10.0973C29.28 10.2294 29.584 10.2955 29.9408 10.2955C30.3043 10.2955 30.6215 10.127 30.8924 9.78997C31.1634 9.45295 31.2988 8.98046 31.2988 8.3725C31.2988 7.96939 31.1799 7.54316 30.942 7.09379C30.7107 6.63782 30.4365 6.40984 30.1193 6.40984C29.6633 6.40984 29.2998 6.51557 29.0289 6.72704V10.0973Z" fill="#F0F2F0"/>
<path d="M33.9562 8.14451C33.9628 8.69961 34.1214 9.19192 34.432 9.62146C34.7492 10.0444 35.1028 10.2559 35.4926 10.2559C36.0676 10.2559 36.5301 10.0378 36.8804 9.60164L37.1183 9.72058C36.9266 10.0378 36.6755 10.2691 36.3649 10.4145C36.061 10.5598 35.6579 10.6325 35.1556 10.6325C34.9045 10.6325 34.6633 10.5962 34.432 10.5235C34.2007 10.4442 33.9727 10.3186 33.7481 10.1468C33.5234 9.9684 33.345 9.70737 33.2128 9.36374C33.0806 9.02011 33.0145 8.61039 33.0145 8.1346C33.0145 7.55307 33.193 7.06406 33.5498 6.66756C33.9133 6.27106 34.4155 6.07282 35.0565 6.07282C35.757 6.07282 36.279 6.27106 36.6227 6.66756C36.9663 7.05745 37.1381 7.54977 37.1381 8.14451H33.9562ZM33.9661 7.83723H36.1667C36.127 7.36143 36.0246 6.99797 35.8594 6.74686C35.7008 6.49575 35.42 6.37019 35.0168 6.37019C34.7856 6.37019 34.5609 6.50566 34.3428 6.7766C34.1313 7.04754 34.0058 7.40108 33.9661 7.83723Z" fill="#F0F2F0"/>
<path d="M37.8237 10.5334V10.3252C38.1805 10.3252 38.3887 10.2592 38.4482 10.127V6.7766C38.0385 6.74356 37.8303 6.72704 37.8237 6.72704V6.49905C37.9492 6.49905 38.1938 6.42966 38.5572 6.29089C38.9273 6.14551 39.1883 6.07282 39.3403 6.07282V6.52879C39.6971 6.22481 40.0903 6.07282 40.5199 6.07282C41.1344 6.07282 41.5772 6.18846 41.8481 6.41975C42.1257 6.64443 42.2644 6.99798 42.2644 7.48038V10.127C42.3239 10.2592 42.5321 10.3252 42.8889 10.3252V10.5334H40.7479V10.3252C41.1047 10.3252 41.3129 10.2592 41.3723 10.127V7.41099C41.3723 6.74356 41.0684 6.40984 40.4604 6.40984C40.0441 6.40984 39.6707 6.55522 39.3403 6.84598V10.127C39.3998 10.2592 39.6079 10.3252 39.9648 10.3252V10.5334H37.8237Z" fill="#F0F2F0"/>
<path d="M44.7892 4.73464V6.17194H45.6417V6.46931H44.7892V9.62146C44.7892 9.82632 44.8256 9.98492 44.8983 10.0973C44.971 10.203 45.1064 10.2559 45.3047 10.2559C45.4236 10.2559 45.5426 10.1997 45.6615 10.0873C45.7871 9.96839 45.873 9.80649 45.9193 9.60164L46.1572 9.72058C46.0184 10.3285 45.6219 10.6325 44.9677 10.6325C44.2143 10.6325 43.8377 10.2691 43.8377 9.54216V6.46931H43.1438V6.17194C43.4544 6.17194 43.7352 6.04308 43.9863 5.78536C44.2375 5.52763 44.363 5.17739 44.363 4.73464H44.7892Z" fill="#F0F2F0"/>
<path d="M46.6132 10.5334V10.3252C46.9701 10.3252 47.1782 10.2592 47.2377 10.127V6.7766C46.828 6.74356 46.6198 6.72704 46.6132 6.72704V6.49905C46.7388 6.49905 46.9833 6.42966 47.3467 6.29089C47.7168 6.14551 47.9778 6.07282 48.1298 6.07282V6.50896C48.4602 6.2182 48.7873 6.07282 49.1111 6.07282C49.4085 6.07282 49.6563 6.12899 49.8546 6.24133C50.0594 6.35367 50.1619 6.47923 50.1619 6.618C50.1619 6.8559 50.0297 6.97485 49.7654 6.97485C49.6266 6.97485 49.501 6.88233 49.3887 6.6973C49.2763 6.50566 49.1475 6.40984 49.0021 6.40984C48.7444 6.40984 48.4536 6.55192 48.1298 6.83607V10.127C48.1893 10.2592 48.3975 10.3252 48.7543 10.3252V10.5334H46.6132Z" fill="#F0F2F0"/>
<path d="M52.0901 6.17194V6.3801C51.8985 6.3801 51.7597 6.39332 51.6738 6.41975L52.8534 9.32409L53.9834 6.48914C53.8909 6.41645 53.7059 6.3801 53.4283 6.3801V6.17194H55.0539V6.3801C54.6971 6.3801 54.4922 6.43958 54.4394 6.55852L52.447 11.5445C52.3214 11.8551 52.1595 12.0797 51.9613 12.2185C51.7696 12.3639 51.5846 12.4366 51.4062 12.4366C51.241 12.4366 51.1088 12.3936 51.0097 12.3077C50.9172 12.2218 50.8709 12.1194 50.8709 12.0004C50.8709 11.9013 50.9039 11.8121 50.97 11.7328C51.0427 11.6535 51.1385 11.6139 51.2575 11.6139C51.3302 11.6139 51.4062 11.6403 51.4855 11.6932C51.5648 11.7526 51.6242 11.7824 51.6639 11.7824C51.8027 11.7824 51.8952 11.7229 51.9414 11.6039L52.3677 10.5334L50.7916 6.57835C50.7321 6.44618 50.524 6.3801 50.1671 6.3801V6.17194H52.0901Z" fill="#F0F2F0"/>
<path d="M57.806 10.5334V10.3252C58.1628 10.3252 58.371 10.2592 58.4304 10.127V5.14105C58.371 5.00888 58.1628 4.9428 57.806 4.9428V4.73464H59.9669V4.9428C59.61 4.9428 59.4019 5.00888 59.3424 5.14105V10.1964H61.6024C61.7676 10.1237 61.9163 9.91553 62.0485 9.5719H62.2467L62.0088 10.5334H57.806Z" fill="#F0F2F0"/>
<path d="M62.7138 10.5334V10.3252C63.0706 10.3252 63.2788 10.2592 63.3382 10.127V5.14105C63.2788 5.00888 63.0706 4.9428 62.7138 4.9428V4.73464H64.8747V4.9428C64.5178 4.9428 64.3097 5.00888 64.2502 5.14105V10.1964H66.5102C66.6754 10.1237 66.8241 9.91553 66.9563 9.5719H67.1545L66.9166 10.5334H62.7138Z" fill="#F0F2F0"/>
<path d="M70.5285 4.97254C69.9601 4.97254 69.4877 5.20713 69.111 5.67632C68.7343 6.14551 68.546 6.75347 68.546 7.5002C68.546 8.3725 68.7442 9.05645 69.1407 9.55207C69.5372 10.0477 70.013 10.2955 70.5681 10.2955C70.8985 10.2955 71.2256 10.1832 71.5494 9.95848C71.8732 9.72719 72.0814 9.48269 72.1739 9.22496L72.4118 9.34391C72.2598 9.70737 72.0186 10.0147 71.6882 10.2658C71.3644 10.5103 70.925 10.6325 70.3699 10.6325C69.491 10.6325 68.7938 10.3484 68.2783 9.78006C67.7695 9.20514 67.5151 8.51788 67.5151 7.71828C67.5151 6.79312 67.8092 6.04969 68.3973 5.48798C68.992 4.91967 69.6991 4.63552 70.5185 4.63552C70.7102 4.63552 70.9316 4.68508 71.1827 4.7842C71.4338 4.88333 71.5792 4.93289 71.6188 4.93289C71.6981 4.93289 71.7378 4.86681 71.7378 4.73464H71.9658L72.0649 5.99352H71.8468C71.8006 5.69614 71.6684 5.45164 71.4503 5.26C71.2389 5.06836 70.9316 4.97254 70.5285 4.97254Z" fill="#F0F2F0"/>
<path fill-rule="evenodd" clip-rule="evenodd" d="M6.15844 0.981323L12.2779 4.77043L11.3767 12.9936H1.01377L0 4.77043L6.15844 0.981323ZM0.634285 4.9924L1.68962 12.1419H10.5883L11.6826 4.9924L6.15844 1.55366L0.634285 4.9924Z" fill="#F0F2F0"/>
<path d="M5.11654 8.95463C5.11654 9.18592 5.0901 9.40069 5.03724 9.59893C4.98437 9.79718 4.89846 9.98882 4.77951 10.1739C4.66717 10.3523 4.49866 10.4944 4.27398 10.6001C4.0493 10.7058 3.78166 10.7587 3.47108 10.7587C3.00189 10.7587 2.63513 10.6662 2.3708 10.4811C2.11307 10.2895 1.98421 10.0846 1.98421 9.86657C1.98421 9.71458 2.02386 9.59563 2.10316 9.50972C2.18246 9.41721 2.28489 9.37095 2.41045 9.37095C2.5294 9.37095 2.63182 9.40069 2.71773 9.46016C2.81025 9.51963 2.85651 9.60554 2.85651 9.71788C2.85651 9.94256 2.7739 10.0813 2.60869 10.1342C2.78712 10.3126 3.04154 10.4018 3.37195 10.4018C3.52394 10.4018 3.6528 10.3754 3.75854 10.3225C3.86427 10.2631 3.94687 10.1904 4.00635 10.1045C4.06582 10.012 4.10877 9.88309 4.13521 9.71788C4.16825 9.54607 4.18807 9.38416 4.19468 9.23217C4.20129 9.07358 4.20459 8.86211 4.20459 8.59778V5.26721C4.14512 5.13504 3.93696 5.06896 3.58011 5.06896V4.8608H5.74102V5.06896C5.38417 5.06896 5.17601 5.13504 5.11654 5.26721V8.95463Z" fill="#F0F2F0"/>
<path d="M10.1953 10.7902H5.91317L9.06531 5.28883H6.6566C6.52443 5.34831 6.45835 5.55647 6.45835 5.91332H6.25019V4.99146H10.2449L7.09274 10.4929H9.78892C9.99378 10.4069 10.1458 10.1889 10.2449 9.83863H10.4531L10.1953 10.7902Z" fill="#F0F2F0"/>
</svg>
