<svg width="199" height="34" viewBox="0 0 199 34" fill="none" xmlns="http://www.w3.org/2000/svg">
<path d="M45.3976 11.763C43.8404 11.763 42.5458 12.4058 41.5137 13.6914C40.4816 14.977 39.9655 16.6428 39.9655 18.6889C39.9655 21.079 40.5087 22.9531 41.5951 24.3111C42.6816 25.6691 43.9853 26.3482 45.5063 26.3482C46.4116 26.3482 47.3079 26.0403 48.1951 25.4247C49.0824 24.7909 49.6528 24.121 49.9063 23.4148L50.5581 23.7407C50.1416 24.7366 49.4807 25.5786 48.5754 26.2667C47.6881 26.9366 46.484 27.2716 44.963 27.2716C42.5548 27.2716 40.6445 26.493 39.2322 24.9358C37.8379 23.3605 37.1408 21.4774 37.1408 19.2864C37.1408 16.7514 37.9466 14.7144 39.5581 13.1753C41.1877 11.6181 43.1252 10.8395 45.3704 10.8395C45.8956 10.8395 46.5021 10.9753 47.1902 11.2469C47.8783 11.5185 48.2766 11.6543 48.3853 11.6543C48.6025 11.6543 48.7112 11.4733 48.7112 11.1111H49.3359L49.6075 14.5605H49.01C48.8832 13.7457 48.5211 13.0757 47.9235 12.5506C47.3441 12.0255 46.5021 11.763 45.3976 11.763Z" fill="#F0F2F0"/>
<path d="M54.2933 17.0593C54.5468 17.0593 54.7641 17.1498 54.9452 17.3309C55.1443 17.5119 55.2439 17.7926 55.2439 18.1728C55.2439 18.4807 55.1172 18.7161 54.8637 18.879C54.6283 19.042 54.3476 19.1235 54.0217 19.1235C53.6777 19.1235 53.397 19.0058 53.1797 18.7704C52.9624 18.5169 52.8538 18.1819 52.8538 17.7654C52.8538 16.8239 53.2431 16.0905 54.0217 15.5654C54.8003 15.0403 55.9048 14.7778 57.3353 14.7778C59.0192 14.7778 60.2505 15.1942 61.0291 16.0272C61.8258 16.8601 62.2242 17.9646 62.2242 19.3407V24.7185C62.2242 25.2979 62.3147 25.7235 62.4958 25.9951C62.695 26.2667 62.9303 26.4025 63.202 26.4025C63.4373 26.4025 63.6456 26.3391 63.8266 26.2123C64.0258 26.0856 64.1254 25.9317 64.1254 25.7506H64.6143C64.6143 26.2576 64.4242 26.6288 64.0439 26.8642C63.6818 27.0996 63.039 27.2173 62.1155 27.2173C61.2102 27.2173 60.5674 26.8461 60.1871 26.1037C59.1188 26.8823 57.788 27.2716 56.1945 27.2716C53.4785 27.2716 52.1205 26.1671 52.1205 23.958C52.1205 23.4872 52.2834 23.0617 52.6094 22.6815C52.9534 22.3012 53.4423 21.9844 54.076 21.7309C54.7098 21.4774 55.3073 21.2782 55.8686 21.1333C56.4299 20.9704 57.1271 20.7984 57.96 20.6173C58.811 20.4181 59.4176 20.2642 59.7797 20.1556C59.7797 18.6346 59.5806 17.521 59.1822 16.8148C58.7838 16.1086 58.0777 15.7556 57.0637 15.7556C55.434 15.7556 54.5106 16.1901 54.2933 17.0593ZM59.9427 25.4247C59.834 25.0263 59.7797 24.5375 59.7797 23.958V20.7531C59.5806 20.8255 59.2365 20.9251 58.7476 21.0519C58.2768 21.1786 57.8875 21.2872 57.5797 21.3778C57.29 21.4683 56.9369 21.6041 56.5205 21.7852C56.104 21.9663 55.7781 22.1473 55.5427 22.3284C55.3073 22.5095 55.0991 22.7539 54.918 23.0617C54.7369 23.3514 54.6464 23.6683 54.6464 24.0124C54.6464 24.8815 54.8094 25.4881 55.1353 25.8321C55.4793 26.1761 55.9863 26.3482 56.6563 26.3482C57.8513 26.3482 58.9468 26.0403 59.9427 25.4247Z" fill="#F0F2F0"/>
<path d="M65.2226 27V26.4296C66.2004 26.4296 66.7708 26.2486 66.9338 25.8864V16.7062C65.8111 16.6156 65.2408 16.5704 65.2226 16.5704V15.9457C65.5667 15.9457 66.2366 15.7556 67.2325 15.3753C68.2465 14.977 68.9617 14.7778 69.3782 14.7778V15.9728C70.2836 15.1761 71.1798 14.7778 72.0671 14.7778C72.8819 14.7778 73.5609 14.9317 74.1041 15.2395C74.6655 15.5473 74.9461 15.8914 74.9461 16.2716C74.9461 16.9235 74.584 17.2494 73.8597 17.2494C73.4794 17.2494 73.1354 16.9959 72.8276 16.4889C72.5198 15.9638 72.1667 15.7012 71.7683 15.7012C71.0622 15.7012 70.2654 16.0905 69.3782 16.8691V25.8864C69.5412 26.2486 70.1115 26.4296 71.0893 26.4296V27H65.2226Z" fill="#F0F2F0"/>
<path d="M75.6939 32.2148V31.6444C76.6716 31.6444 77.242 31.4634 77.405 31.1012V16.7062C77.405 16.7062 76.8346 16.6609 75.6939 16.5704V15.9457C76.0379 15.9457 76.7079 15.7556 77.7037 15.3753C78.7177 14.977 79.433 14.7778 79.8494 14.7778V15.6741C80.7186 15.0765 81.805 14.7778 83.1087 14.7778C83.7062 14.7778 84.2947 14.8864 84.8741 15.1037C85.4716 15.3029 86.0601 15.6288 86.6395 16.0815C87.2371 16.5161 87.7169 17.1679 88.0791 18.037C88.4593 18.9062 88.6494 19.9202 88.6494 21.079C88.6494 23.0889 88.0881 24.628 86.9655 25.6963C85.8428 26.7465 84.3581 27.2716 82.5112 27.2716C81.4609 27.2716 80.5737 27.0724 79.8494 26.6741V31.1012C80.0124 31.4634 80.5828 31.6444 81.5605 31.6444V32.2148H75.6939ZM79.8494 25.8049C80.5375 26.1671 81.3704 26.3482 82.3482 26.3482C83.3441 26.3482 84.2132 25.8864 84.9556 24.963C85.698 24.0395 86.0692 22.7449 86.0692 21.079C86.0692 19.9745 85.7433 18.8066 85.0914 17.5753C84.4577 16.3259 83.7062 15.7012 82.8371 15.7012C81.5877 15.7012 80.5918 15.9909 79.8494 16.5704V25.8049Z" fill="#F0F2F0"/>
<path d="M93.3505 20.4543C93.3686 21.9753 93.8032 23.3243 94.6542 24.5012C95.5234 25.6601 96.4921 26.2395 97.5604 26.2395C99.1357 26.2395 100.403 25.642 101.363 24.4469L102.015 24.7728C101.49 25.642 100.802 26.2757 99.9505 26.6741C99.1176 27.0724 98.0131 27.2716 96.6369 27.2716C95.9489 27.2716 95.288 27.172 94.6542 26.9728C94.0205 26.7556 93.3958 26.4115 92.7802 25.9407C92.1645 25.4519 91.6756 24.7366 91.3135 23.7951C90.9513 22.8535 90.7703 21.7309 90.7703 20.4272C90.7703 18.8337 91.2592 17.4938 92.2369 16.4074C93.2328 15.321 94.609 14.7778 96.3653 14.7778C98.2847 14.7778 99.7151 15.321 100.657 16.4074C101.598 17.4757 102.069 18.8247 102.069 20.4543H93.3505ZM93.3777 19.6123H99.4073C99.2987 18.3086 99.018 17.3128 98.5653 16.6247C98.1308 15.9366 97.3612 15.5926 96.2567 15.5926C95.623 15.5926 95.0073 15.9638 94.4098 16.7062C93.8304 17.4486 93.4863 18.4173 93.3777 19.6123Z" fill="#F0F2F0"/>
<path d="M103.948 27V26.4296C104.925 26.4296 105.496 26.2486 105.659 25.8864V16.7062C104.536 16.6156 103.966 16.5704 103.948 16.5704V15.9457C104.292 15.9457 104.962 15.7556 105.957 15.3753C106.971 14.977 107.687 14.7778 108.103 14.7778V16.0272C109.081 15.1942 110.158 14.7778 111.335 14.7778C113.019 14.7778 114.232 15.0947 114.975 15.7284C115.735 16.344 116.115 17.3128 116.115 18.6346V25.8864C116.278 26.2486 116.849 26.4296 117.827 26.4296V27H111.96V26.4296C112.938 26.4296 113.508 26.2486 113.671 25.8864V18.4444C113.671 16.6156 112.838 15.7012 111.172 15.7012C110.032 15.7012 109.008 16.0996 108.103 16.8963V25.8864C108.266 26.2486 108.836 26.4296 109.814 26.4296V27H103.948Z" fill="#F0F2F0"/>
<path d="M123.034 11.1111V15.0494H125.369V15.8642H123.034V24.5012C123.034 25.0626 123.133 25.4971 123.332 25.8049C123.531 26.0947 123.903 26.2395 124.446 26.2395C124.772 26.2395 125.098 26.0856 125.424 25.7778C125.768 25.4519 126.003 25.0082 126.13 24.4469L126.782 24.7728C126.401 26.4387 125.315 27.2716 123.522 27.2716C121.458 27.2716 120.426 26.2757 120.426 24.284V15.8642H118.525V15.0494C119.376 15.0494 120.145 14.6963 120.834 13.9901C121.522 13.284 121.866 12.3243 121.866 11.1111H123.034Z" fill="#F0F2F0"/>
<path d="M128.031 27V26.4296C129.009 26.4296 129.579 26.2486 129.742 25.8864V16.7062C128.62 16.6156 128.049 16.5704 128.031 16.5704V15.9457C128.375 15.9457 129.045 15.7556 130.041 15.3753C131.055 14.977 131.77 14.7778 132.187 14.7778V15.9728C133.092 15.1761 133.988 14.7778 134.876 14.7778C135.691 14.7778 136.37 14.9317 136.913 15.2395C137.474 15.5473 137.755 15.8914 137.755 16.2716C137.755 16.9235 137.393 17.2494 136.668 17.2494C136.288 17.2494 135.944 16.9959 135.636 16.4889C135.328 15.9638 134.975 15.7012 134.577 15.7012C133.871 15.7012 133.074 16.0905 132.187 16.8691V25.8864C132.35 26.2486 132.92 26.4296 133.898 26.4296V27H128.031Z" fill="#F0F2F0"/>
<path d="M143.038 15.0494V15.6198C142.513 15.6198 142.133 15.656 141.898 15.7284L145.13 23.6864L148.226 15.9185C147.972 15.7193 147.465 15.6198 146.705 15.6198V15.0494H151.159V15.6198C150.182 15.6198 149.62 15.7827 149.475 16.1086L144.016 29.7704C143.672 30.6214 143.228 31.237 142.685 31.6173C142.16 32.0156 141.653 32.2148 141.164 32.2148C140.712 32.2148 140.349 32.0971 140.078 31.8617C139.824 31.6263 139.698 31.3457 139.698 31.0198C139.698 30.7482 139.788 30.5037 139.969 30.2864C140.168 30.0691 140.431 29.9605 140.757 29.9605C140.956 29.9605 141.164 30.0329 141.382 30.1778C141.599 30.3407 141.762 30.4222 141.87 30.4222C142.251 30.4222 142.504 30.2593 142.631 29.9333L143.799 27L139.48 16.163C139.317 15.8008 138.747 15.6198 137.769 15.6198V15.0494H143.038Z" fill="#F0F2F0"/>
<path d="M158.7 27V26.4296C159.678 26.4296 160.248 26.2486 160.411 25.8864V12.2247C160.248 11.8626 159.678 11.6815 158.7 11.6815V11.1111H164.621V11.6815C163.643 11.6815 163.073 11.8626 162.91 12.2247V26.0765H169.102C169.555 25.8774 169.963 25.307 170.325 24.3654H170.868L170.216 27H158.7Z" fill="#F0F2F0"/>
<path d="M172.148 27V26.4296C173.125 26.4296 173.696 26.2486 173.859 25.8864V12.2247C173.696 11.8626 173.125 11.6815 172.148 11.6815V11.1111H178.069V11.6815C177.091 11.6815 176.52 11.8626 176.357 12.2247V26.0765H182.55C183.003 25.8774 183.41 25.307 183.772 24.3654H184.315L183.664 27H172.148Z" fill="#F0F2F0"/>
<path d="M193.56 11.763C192.003 11.763 190.708 12.4058 189.676 13.6914C188.644 14.977 188.128 16.6428 188.128 18.6889C188.128 21.079 188.671 22.9531 189.758 24.3111C190.844 25.6691 192.148 26.3482 193.669 26.3482C194.574 26.3482 195.471 26.0403 196.358 25.4247C197.245 24.7909 197.815 24.121 198.069 23.4148L198.721 23.7407C198.304 24.7366 197.643 25.5786 196.738 26.2667C195.851 26.9366 194.647 27.2716 193.126 27.2716C190.717 27.2716 188.807 26.493 187.395 24.9358C186.001 23.3605 185.303 21.4774 185.303 19.2864C185.303 16.7514 186.109 14.7144 187.721 13.1753C189.35 11.6181 191.288 10.8395 193.533 10.8395C194.058 10.8395 194.665 10.9753 195.353 11.2469C196.041 11.5185 196.439 11.6543 196.548 11.6543C196.765 11.6543 196.874 11.4733 196.874 11.1111H197.498L197.77 14.5605H197.173C197.046 13.7457 196.684 13.0757 196.086 12.5506C195.507 12.0255 194.665 11.763 193.56 11.763Z" fill="#F0F2F0"/>
<path fill-rule="evenodd" clip-rule="evenodd" d="M17.1833 0.826843L33.9508 11.2092L31.4817 33.741H3.08662L0.308838 11.2092L17.1833 0.826843ZM2.04681 11.8174L4.93847 31.4074H29.3212L32.3197 11.8174L17.1833 2.39507L2.04681 11.8174Z" fill="#F0F2F0"/>
<path d="M14.3284 22.6741C14.3284 23.3078 14.256 23.8963 14.1111 24.4395C13.9663 24.9827 13.7309 25.5078 13.4049 26.0148C13.0971 26.5037 12.6354 26.893 12.0198 27.1827C11.4041 27.4724 10.6708 27.6173 9.81975 27.6173C8.53416 27.6173 7.52922 27.3638 6.80494 26.8568C6.09876 26.3317 5.74568 25.7704 5.74568 25.1728C5.74568 24.7564 5.85432 24.4305 6.0716 24.1951C6.28889 23.9416 6.56955 23.8148 6.91358 23.8148C7.2395 23.8148 7.52016 23.8963 7.75555 24.0593C8.00905 24.2222 8.1358 24.4576 8.1358 24.7654C8.1358 25.3811 7.90946 25.7613 7.45679 25.9062C7.94568 26.3951 8.6428 26.6395 9.54815 26.6395C9.96461 26.6395 10.3177 26.5671 10.6074 26.4222C10.8971 26.2593 11.1235 26.0601 11.2864 25.8247C11.4494 25.5712 11.5671 25.2181 11.6395 24.7654C11.73 24.2947 11.7844 23.851 11.8025 23.4346C11.8206 23 11.8296 22.4206 11.8296 21.6963V12.5704C11.6667 12.2082 11.0963 12.0272 10.1185 12.0272V11.4568H16.0395V12.0272C15.0617 12.0272 14.4914 12.2082 14.3284 12.5704V22.6741Z" fill="#F0F2F0"/>
<path d="M28.2445 27.7037H16.5112L25.1482 12.6296H18.5482C18.1861 12.7926 18.005 13.363 18.005 14.3407H17.4347V11.8148H28.3803L19.7433 26.8889H27.131C27.6923 26.6535 28.1087 26.056 28.3803 25.0963H28.9507L28.2445 27.7037Z" fill="#F0F2F0"/>
</svg>
