<svg width="97" height="16" viewBox="0 0 97 16" fill="none" xmlns="http://www.w3.org/2000/svg">
<path d="M21.9094 5.31405C21.1528 5.31405 20.5237 5.6264 20.0221 6.25109C19.5206 6.87579 19.2699 7.68525 19.2699 8.67948C19.2699 9.84089 19.5338 10.7515 20.0617 11.4114C20.5897 12.0713 21.2231 12.4013 21.9622 12.4013C22.4021 12.4013 22.8377 12.2517 23.2688 11.9525C23.6999 11.6446 23.9771 11.319 24.1003 10.9759L24.417 11.1343C24.2146 11.6182 23.8935 12.0273 23.4536 12.3617C23.0224 12.6872 22.4373 12.85 21.6983 12.85C20.5281 12.85 19.5998 12.4716 18.9135 11.715C18.236 10.9495 17.8973 10.0345 17.8973 8.96983C17.8973 7.73804 18.2888 6.74821 19.0719 6.00034C19.8638 5.24367 20.8052 4.86533 21.8962 4.86533C22.1514 4.86533 22.4461 4.93132 22.7805 5.0633C23.1148 5.19527 23.3084 5.26126 23.3612 5.26126C23.4668 5.26126 23.5196 5.17328 23.5196 4.99731H23.8231L23.9551 6.67342H23.6647C23.6031 6.27749 23.4272 5.95195 23.1368 5.69679C22.8553 5.44163 22.4461 5.31405 21.9094 5.31405Z" fill="#F0F2F0"/>
<path d="M26.232 7.88762C26.3552 7.88762 26.4608 7.93161 26.5487 8.01959C26.6455 8.10758 26.6939 8.24396 26.6939 8.42873C26.6939 8.5783 26.6323 8.69268 26.5092 8.77187C26.3948 8.85105 26.2584 8.89065 26.1 8.89065C25.9329 8.89065 25.7965 8.83346 25.6909 8.71908C25.5853 8.5959 25.5325 8.43313 25.5325 8.23076C25.5325 7.77324 25.7217 7.4169 26.1 7.16174C26.4784 6.90658 27.0151 6.77901 27.7102 6.77901C28.5284 6.77901 29.1267 6.98137 29.505 7.3861C29.8922 7.79083 30.0857 8.32754 30.0857 8.99623V11.6094C30.0857 11.8909 30.1297 12.0977 30.2177 12.2297C30.3145 12.3617 30.4289 12.4276 30.5609 12.4276C30.6752 12.4276 30.7764 12.3969 30.8644 12.3353C30.9612 12.2737 31.0096 12.1989 31.0096 12.1109H31.2472C31.2472 12.3573 31.1548 12.5376 30.97 12.652C30.794 12.7664 30.4817 12.8236 30.033 12.8236C29.593 12.8236 29.2807 12.6432 29.0959 12.2825C28.5768 12.6608 27.9301 12.85 27.1558 12.85C25.8361 12.85 25.1762 12.3133 25.1762 11.2398C25.1762 11.0111 25.2554 10.8043 25.4137 10.6196C25.5809 10.4348 25.8185 10.2808 26.1264 10.1576C26.4344 10.0345 26.7247 9.93767 26.9975 9.86728C27.2702 9.78809 27.609 9.70451 28.0137 9.61652C28.4272 9.51974 28.722 9.44495 28.898 9.39216C28.898 8.65309 28.8012 8.11198 28.6076 7.76884C28.414 7.4257 28.0709 7.25412 27.5782 7.25412C26.7863 7.25412 26.3376 7.46529 26.232 7.88762ZM28.9771 11.9525C28.9243 11.759 28.898 11.5214 28.898 11.2398V9.68251C28.8012 9.71771 28.634 9.7661 28.3964 9.82769C28.1677 9.88928 27.9785 9.94207 27.8289 9.98606C27.6882 10.0301 27.5166 10.096 27.3142 10.184C27.1119 10.272 26.9535 10.36 26.8391 10.448C26.7247 10.536 26.6235 10.6547 26.5356 10.8043C26.4476 10.9451 26.4036 11.0991 26.4036 11.2662C26.4036 11.6886 26.4828 11.9833 26.6411 12.1505C26.8083 12.3177 27.0547 12.4013 27.3802 12.4013C27.9609 12.4013 28.4932 12.2517 28.9771 11.9525Z" fill="#F0F2F0"/>
<path d="M31.5428 12.718V12.4408C32.0179 12.4408 32.295 12.3529 32.3742 12.1769V7.71605C31.8287 7.67205 31.5516 7.65006 31.5428 7.65006V7.34651C31.7099 7.34651 32.0355 7.25412 32.5194 7.06936C33.0121 6.87579 33.3597 6.77901 33.562 6.77901V7.35971C34.0019 6.97257 34.4375 6.77901 34.8686 6.77901C35.2645 6.77901 35.5945 6.85379 35.8584 7.00337C36.1312 7.15294 36.2676 7.32011 36.2676 7.50488C36.2676 7.82163 36.0916 7.98 35.7397 7.98C35.5549 7.98 35.3877 7.85682 35.2381 7.61046C35.0886 7.35531 34.917 7.22773 34.7234 7.22773C34.3803 7.22773 33.9931 7.4169 33.562 7.79523V12.1769C33.6412 12.3529 33.9184 12.4408 34.3935 12.4408V12.718H31.5428Z" fill="#F0F2F0"/>
<path d="M36.6309 15.252V14.9748C37.106 14.9748 37.3832 14.8868 37.4624 14.7109V7.71605C37.4624 7.71605 37.1852 7.69405 36.6309 7.65006V7.34651C36.7981 7.34651 37.1236 7.25412 37.6075 7.06936C38.1003 6.87579 38.4478 6.77901 38.6502 6.77901V7.21453C39.0725 6.92418 39.6004 6.77901 40.2339 6.77901C40.5243 6.77901 40.8102 6.8318 41.0918 6.93738C41.3821 7.03416 41.6681 7.19254 41.9496 7.4125C42.24 7.62366 42.4731 7.94041 42.6491 8.36274C42.8339 8.78507 42.9262 9.27778 42.9262 9.84089C42.9262 10.8175 42.6535 11.5654 42.108 12.0845C41.5625 12.5948 40.841 12.85 39.9435 12.85C39.4332 12.85 39.0021 12.7532 38.6502 12.5596V14.7109C38.7294 14.8868 39.0065 14.9748 39.4816 14.9748V15.252H36.6309ZM38.6502 12.1373C38.9845 12.3133 39.3892 12.4013 39.8644 12.4013C40.3483 12.4013 40.7706 12.1769 41.1313 11.7282C41.4921 11.2794 41.6725 10.6503 41.6725 9.84089C41.6725 9.30418 41.5141 8.73667 41.1973 8.13837C40.8894 7.53128 40.5243 7.22773 40.1019 7.22773C39.4948 7.22773 39.0109 7.36851 38.6502 7.65006V12.1373Z" fill="#F0F2F0"/>
<path d="M45.2106 9.53734C45.2194 10.2764 45.4306 10.9319 45.8441 11.5038C46.2664 12.0669 46.7371 12.3485 47.2562 12.3485C48.0217 12.3485 48.6376 12.0581 49.1039 11.4774L49.4207 11.6358C49.1655 12.0581 48.8312 12.3661 48.4176 12.5596C48.0129 12.7532 47.4762 12.85 46.8075 12.85C46.4732 12.85 46.152 12.8016 45.8441 12.7048C45.5361 12.5992 45.2326 12.432 44.9334 12.2033C44.6343 11.9657 44.3967 11.6182 44.2208 11.1607C44.0448 10.7031 43.9568 10.1576 43.9568 9.52414C43.9568 8.74987 44.1944 8.09878 44.6695 7.57087C45.1534 7.04296 45.8221 6.77901 46.6755 6.77901C47.6082 6.77901 48.3033 7.04296 48.7608 7.57087C49.2183 8.08998 49.4471 8.74547 49.4471 9.53734H45.2106ZM45.2238 9.12821H48.1537C48.1009 8.49471 47.9645 8.0108 47.7446 7.67645C47.5334 7.34211 47.1595 7.17494 46.6228 7.17494C46.3148 7.17494 46.0157 7.35531 45.7253 7.71605C45.4437 8.07679 45.2766 8.5475 45.2238 9.12821Z" fill="#F0F2F0"/>
<path d="M50.3599 12.718V12.4408C50.835 12.4408 51.1122 12.3529 51.1913 12.1769V7.71605C50.6458 7.67205 50.3687 7.65006 50.3599 7.65006V7.34651C50.5271 7.34651 50.8526 7.25412 51.3365 7.06936C51.8292 6.87579 52.1768 6.77901 52.3791 6.77901V7.3861C52.8543 6.98137 53.3778 6.77901 53.9497 6.77901C54.7679 6.77901 55.3574 6.93298 55.7182 7.24093C56.0877 7.54008 56.2725 8.0108 56.2725 8.65309V12.1769C56.3517 12.3529 56.6288 12.4408 57.1039 12.4408V12.718H54.2532V12.4408C54.7283 12.4408 55.0055 12.3529 55.0847 12.1769V8.5607C55.0847 7.67205 54.6799 7.22773 53.8705 7.22773C53.3162 7.22773 52.8191 7.4213 52.3791 7.80843V12.1769C52.4583 12.3529 52.7355 12.4408 53.2106 12.4408V12.718H50.3599Z" fill="#F0F2F0"/>
<path d="M59.6341 4.99731V6.91098H60.7691V7.30692H59.6341V11.5038C59.6341 11.7766 59.6825 11.9877 59.7793 12.1373C59.8761 12.2781 60.0564 12.3485 60.3204 12.3485C60.4787 12.3485 60.6371 12.2737 60.7955 12.1241C60.9627 11.9657 61.077 11.7502 61.1386 11.4774L61.4554 11.6358C61.2706 12.4452 60.7427 12.85 59.8716 12.85C58.8686 12.85 58.3671 12.3661 58.3671 11.3982V7.30692H57.4433V6.91098C57.8568 6.91098 58.2307 6.73941 58.5651 6.39627C58.8994 6.05313 59.0666 5.58681 59.0666 4.99731H59.6341Z" fill="#F0F2F0"/>
<path d="M62.0626 12.718V12.4408C62.5377 12.4408 62.8149 12.3529 62.894 12.1769V7.71605C62.3485 7.67205 62.0714 7.65006 62.0626 7.65006V7.34651C62.2298 7.34651 62.5553 7.25412 63.0392 7.06936C63.5319 6.87579 63.8795 6.77901 64.0818 6.77901V7.35971C64.5218 6.97257 64.9573 6.77901 65.3884 6.77901C65.7844 6.77901 66.1143 6.85379 66.3783 7.00337C66.651 7.15294 66.7874 7.32011 66.7874 7.50488C66.7874 7.82163 66.6114 7.98 66.2595 7.98C66.0747 7.98 65.9075 7.85682 65.758 7.61046C65.6084 7.35531 65.4368 7.22773 65.2432 7.22773C64.9001 7.22773 64.513 7.4169 64.0818 7.79523V12.1769C64.161 12.3529 64.4382 12.4408 64.9133 12.4408V12.718H62.0626Z" fill="#F0F2F0"/>
<path d="M69.3548 6.91098V7.18814C69.0996 7.18814 68.9148 7.20573 68.8005 7.24093L70.371 11.1079L71.8755 7.33331C71.7524 7.23653 71.506 7.18814 71.1365 7.18814V6.91098H73.3009V7.18814C72.8258 7.18814 72.553 7.26732 72.4826 7.4257L69.8299 14.0642C69.6627 14.4777 69.4471 14.7768 69.1832 14.9616C68.928 15.1552 68.6817 15.252 68.4441 15.252C68.2241 15.252 68.0482 15.1948 67.9162 15.0804C67.793 14.966 67.7314 14.8296 67.7314 14.6713C67.7314 14.5393 67.7754 14.4205 67.8634 14.3149C67.9602 14.2093 68.0878 14.1566 68.2461 14.1566C68.3429 14.1566 68.4441 14.1917 68.5497 14.2621C68.6553 14.3413 68.7345 14.3809 68.7873 14.3809C68.972 14.3809 69.0952 14.3017 69.1568 14.1434L69.7243 12.718L67.6259 7.45209C67.5467 7.27612 67.2695 7.18814 66.7944 7.18814V6.91098H69.3548Z" fill="#F0F2F0"/>
<path d="M76.965 12.718V12.4408C77.4401 12.4408 77.7173 12.3529 77.7965 12.1769V5.53842C77.7173 5.36245 77.4401 5.27446 76.965 5.27446V4.99731H79.8421V5.27446C79.367 5.27446 79.0899 5.36245 79.0107 5.53842V12.2693H82.0198C82.2397 12.1725 82.4377 11.8953 82.6137 11.4378H82.8776L82.5609 12.718H76.965Z" fill="#F0F2F0"/>
<path d="M83.4995 12.718V12.4408C83.9746 12.4408 84.2517 12.3529 84.3309 12.1769V5.53842C84.2517 5.36245 83.9746 5.27446 83.4995 5.27446V4.99731H86.3766V5.27446C85.9015 5.27446 85.6243 5.36245 85.5451 5.53842V12.2693H88.5542C88.7742 12.1725 88.9721 11.8953 89.1481 11.4378H89.4121L89.0953 12.718H83.4995Z" fill="#F0F2F0"/>
<path d="M93.9042 5.31405C93.1476 5.31405 92.5185 5.6264 92.017 6.25109C91.5154 6.87579 91.2647 7.68525 91.2647 8.67948C91.2647 9.84089 91.5286 10.7515 92.0566 11.4114C92.5845 12.0713 93.218 12.4013 93.957 12.4013C94.397 12.4013 94.8325 12.2517 95.2636 11.9525C95.6947 11.6446 95.9719 11.319 96.0951 10.9759L96.4118 11.1343C96.2095 11.6182 95.8883 12.0273 95.4484 12.3617C95.0173 12.6872 94.4322 12.85 93.6931 12.85C92.5229 12.85 91.5946 12.4716 90.9084 11.715C90.2309 10.9495 89.8921 10.0345 89.8921 8.96983C89.8921 7.73804 90.2837 6.74821 91.0667 6.00034C91.8586 5.24367 92.8 4.86533 93.891 4.86533C94.1462 4.86533 94.441 4.93132 94.7753 5.0633C95.1096 5.19527 95.3032 5.26126 95.356 5.26126C95.4616 5.26126 95.5144 5.17328 95.5144 4.99731H95.8179L95.9499 6.67342H95.6595C95.598 6.27749 95.422 5.95195 95.1316 5.69679C94.8501 5.44163 94.441 5.31405 93.9042 5.31405Z" fill="#F0F2F0"/>
<path fill-rule="evenodd" clip-rule="evenodd" d="M8.19958 0L16.3472 5.04496L15.1474 15.9936H1.34977L0 5.04496L8.19958 0ZM0.844511 5.3405L2.24962 14.8596H14.0976L15.5547 5.3405L8.19958 0.762029L0.844511 5.3405Z" fill="#F0F2F0"/>
<path d="M6.81235 10.616C6.81235 10.9239 6.77715 11.2099 6.70677 11.4738C6.63638 11.7378 6.522 11.9929 6.36362 12.2393C6.21405 12.4768 5.98969 12.666 5.69054 12.8068C5.39139 12.9476 5.03505 13.0179 4.62152 13.0179C3.99683 13.0179 3.50851 12.8948 3.15657 12.6484C2.81343 12.3933 2.64186 12.1205 2.64186 11.8301C2.64186 11.6278 2.69465 11.4694 2.80023 11.355C2.90581 11.2319 3.04219 11.1703 3.20936 11.1703C3.36773 11.1703 3.50411 11.2099 3.61849 11.289C3.74167 11.3682 3.80326 11.4826 3.80326 11.6322C3.80326 11.9313 3.69328 12.1161 3.47331 12.1865C3.71087 12.424 4.04962 12.5428 4.48954 12.5428C4.69191 12.5428 4.86348 12.5076 5.00426 12.4372C5.14503 12.3581 5.25501 12.2613 5.3342 12.1469C5.41339 12.0237 5.47058 11.8521 5.50577 11.6322C5.54976 11.4034 5.57616 11.1879 5.58496 10.9855C5.59376 10.7743 5.59815 10.4928 5.59815 10.1408V5.70639C5.51897 5.53042 5.24181 5.44243 4.7667 5.44243V5.16528H7.64381V5.44243C7.16869 5.44243 6.89154 5.53042 6.81235 5.70639V10.616Z" fill="#F0F2F0"/>
<path d="M13.5744 13.0599H7.87301L12.0699 5.73518H8.86284C8.68687 5.81437 8.59889 6.09152 8.59889 6.56664H8.32174V5.33925H13.6404L9.44355 12.664H13.0333C13.3061 12.5496 13.5085 12.2593 13.6404 11.793H13.9176L13.5744 13.0599Z" fill="#F0F2F0"/>
</svg>
