<svg width="198" height="34" viewBox="0 0 198 34" fill="none" xmlns="http://www.w3.org/2000/svg">
<path d="M45.3421 12.853C43.7941 12.853 42.5071 13.492 41.4811 14.77C40.4551 16.048 39.9421 17.704 39.9421 19.738C39.9421 22.114 40.4821 23.977 41.5621 25.327C42.6421 26.677 43.9381 27.352 45.4501 27.352C46.3501 27.352 47.2411 27.046 48.1231 26.434C49.0051 25.804 49.5721 25.138 49.8241 24.436L50.4721 24.76C50.0581 25.75 49.4011 26.587 48.5011 27.271C47.6191 27.937 46.4221 28.27 44.9101 28.27C42.5161 28.27 40.6171 27.496 39.2131 25.948C37.8271 24.382 37.1341 22.51 37.1341 20.332C37.1341 17.812 37.9351 15.787 39.5371 14.257C41.1571 12.709 43.0831 11.935 45.3151 11.935C45.8371 11.935 46.4401 12.07 47.1241 12.34C47.8081 12.61 48.2041 12.745 48.3121 12.745C48.5281 12.745 48.6361 12.565 48.6361 12.205H49.2571L49.5271 15.634H48.9331C48.8071 14.824 48.4471 14.158 47.8531 13.636C47.2771 13.114 46.4401 12.853 45.3421 12.853Z" fill="#F0F2F0"/>
<path d="M54.1852 18.118C54.4372 18.118 54.6532 18.208 54.8332 18.388C55.0312 18.568 55.1302 18.847 55.1302 19.225C55.1302 19.531 55.0042 19.765 54.7522 19.927C54.5182 20.089 54.2392 20.17 53.9152 20.17C53.5732 20.17 53.2942 20.053 53.0782 19.819C52.8622 19.567 52.7542 19.234 52.7542 18.82C52.7542 17.884 53.1412 17.155 53.9152 16.633C54.6892 16.111 55.7872 15.85 57.2092 15.85C58.8832 15.85 60.1072 16.264 60.8812 17.092C61.6732 17.92 62.0692 19.018 62.0692 20.386V25.732C62.0692 26.308 62.1592 26.731 62.3392 27.001C62.5372 27.271 62.7712 27.406 63.0412 27.406C63.2752 27.406 63.4822 27.343 63.6622 27.217C63.8602 27.091 63.9592 26.938 63.9592 26.758H64.4452C64.4452 27.262 64.2562 27.631 63.8782 27.865C63.5182 28.099 62.8792 28.216 61.9612 28.216C61.0612 28.216 60.4222 27.847 60.0442 27.109C58.9822 27.883 57.6592 28.27 56.0752 28.27C53.3752 28.27 52.0252 27.172 52.0252 24.976C52.0252 24.508 52.1872 24.085 52.5112 23.707C52.8532 23.329 53.3392 23.014 53.9692 22.762C54.5992 22.51 55.1932 22.312 55.7512 22.168C56.3092 22.006 57.0022 21.835 57.8302 21.655C58.6762 21.457 59.2792 21.304 59.6392 21.196C59.6392 19.684 59.4412 18.577 59.0452 17.875C58.6492 17.173 57.9472 16.822 56.9392 16.822C55.3192 16.822 54.4012 17.254 54.1852 18.118ZM59.8012 26.434C59.6932 26.038 59.6392 25.552 59.6392 24.976V21.79C59.4412 21.862 59.0992 21.961 58.6132 22.087C58.1452 22.213 57.7582 22.321 57.4522 22.411C57.1642 22.501 56.8132 22.636 56.3992 22.816C55.9852 22.996 55.6612 23.176 55.4272 23.356C55.1932 23.536 54.9862 23.779 54.8062 24.085C54.6262 24.373 54.5362 24.688 54.5362 25.03C54.5362 25.894 54.6982 26.497 55.0222 26.839C55.3642 27.181 55.8682 27.352 56.5342 27.352C57.7222 27.352 58.8112 27.046 59.8012 26.434Z" fill="#F0F2F0"/>
<path d="M65.05 28V27.433C66.022 27.433 66.589 27.253 66.751 26.893V17.767C65.635 17.677 65.068 17.632 65.05 17.632V17.011C65.392 17.011 66.058 16.822 67.048 16.444C68.056 16.048 68.767 15.85 69.181 15.85V17.038C70.081 16.246 70.972 15.85 71.854 15.85C72.664 15.85 73.339 16.003 73.879 16.309C74.437 16.615 74.716 16.957 74.716 17.335C74.716 17.983 74.356 18.307 73.636 18.307C73.258 18.307 72.916 18.055 72.61 17.551C72.304 17.029 71.953 16.768 71.557 16.768C70.855 16.768 70.063 17.155 69.181 17.929V26.893C69.343 27.253 69.91 27.433 70.882 27.433V28H65.05Z" fill="#F0F2F0"/>
<path d="M75.4593 33.184V32.617C76.4313 32.617 76.9983 32.437 77.1603 32.077V17.767C77.1603 17.767 76.5933 17.722 75.4593 17.632V17.011C75.8013 17.011 76.4673 16.822 77.4573 16.444C78.4653 16.048 79.1763 15.85 79.5903 15.85V16.741C80.4543 16.147 81.5343 15.85 82.8303 15.85C83.4243 15.85 84.0093 15.958 84.5853 16.174C85.1793 16.372 85.7643 16.696 86.3403 17.146C86.9343 17.578 87.4113 18.226 87.7713 19.09C88.1493 19.954 88.3383 20.962 88.3383 22.114C88.3383 24.112 87.7803 25.642 86.6643 26.704C85.5483 27.748 84.0723 28.27 82.2363 28.27C81.1923 28.27 80.3103 28.072 79.5903 27.676V32.077C79.7523 32.437 80.3193 32.617 81.2913 32.617V33.184H75.4593ZM79.5903 26.812C80.2743 27.172 81.1023 27.352 82.0743 27.352C83.0643 27.352 83.9283 26.893 84.6663 25.975C85.4043 25.057 85.7733 23.77 85.7733 22.114C85.7733 21.016 85.4493 19.855 84.8013 18.631C84.1713 17.389 83.4243 16.768 82.5603 16.768C81.3183 16.768 80.3283 17.056 79.5903 17.632V26.812Z" fill="#F0F2F0"/>
<path d="M93.0116 21.493C93.0296 23.005 93.4616 24.346 94.3076 25.516C95.1716 26.668 96.1346 27.244 97.1966 27.244C98.7626 27.244 100.023 26.65 100.977 25.462L101.625 25.786C101.103 26.65 100.419 27.28 99.5726 27.676C98.7446 28.072 97.6466 28.27 96.2786 28.27C95.5946 28.27 94.9376 28.171 94.3076 27.973C93.6776 27.757 93.0566 27.415 92.4446 26.947C91.8326 26.461 91.3466 25.75 90.9866 24.814C90.6266 23.878 90.4466 22.762 90.4466 21.466C90.4466 19.882 90.9326 18.55 91.9046 17.47C92.8946 16.39 94.2626 15.85 96.0086 15.85C97.9166 15.85 99.3386 16.39 100.275 17.47C101.211 18.532 101.679 19.873 101.679 21.493H93.0116ZM93.0386 20.656H99.0326C98.9246 19.36 98.6456 18.37 98.1956 17.686C97.7636 17.002 96.9986 16.66 95.9006 16.66C95.2706 16.66 94.6586 17.029 94.0646 17.767C93.4886 18.505 93.1466 19.468 93.0386 20.656Z" fill="#F0F2F0"/>
<path d="M103.546 28V27.433C104.518 27.433 105.085 27.253 105.247 26.893V17.767C104.131 17.677 103.564 17.632 103.546 17.632V17.011C103.888 17.011 104.554 16.822 105.544 16.444C106.552 16.048 107.263 15.85 107.677 15.85V17.092C108.649 16.264 109.72 15.85 110.89 15.85C112.564 15.85 113.77 16.165 114.508 16.795C115.264 17.407 115.642 18.37 115.642 19.684V26.893C115.804 27.253 116.371 27.433 117.343 27.433V28H111.511V27.433C112.483 27.433 113.05 27.253 113.212 26.893V19.495C113.212 17.677 112.384 16.768 110.728 16.768C109.594 16.768 108.577 17.164 107.677 17.956V26.893C107.839 27.253 108.406 27.433 109.378 27.433V28H103.546Z" fill="#F0F2F0"/>
<path d="M122.519 12.205V16.12H124.841V16.93H122.519V25.516C122.519 26.074 122.618 26.506 122.816 26.812C123.014 27.1 123.383 27.244 123.923 27.244C124.247 27.244 124.571 27.091 124.895 26.785C125.237 26.461 125.471 26.02 125.597 25.462L126.245 25.786C125.867 27.442 124.787 28.27 123.005 28.27C120.953 28.27 119.927 27.28 119.927 25.3V16.93H118.037V16.12C118.883 16.12 119.648 15.769 120.332 15.067C121.016 14.365 121.358 13.411 121.358 12.205H122.519Z" fill="#F0F2F0"/>
<path d="M127.487 28V27.433C128.459 27.433 129.026 27.253 129.188 26.893V17.767C128.072 17.677 127.505 17.632 127.487 17.632V17.011C127.829 17.011 128.495 16.822 129.485 16.444C130.493 16.048 131.204 15.85 131.618 15.85V17.038C132.518 16.246 133.409 15.85 134.291 15.85C135.101 15.85 135.776 16.003 136.316 16.309C136.874 16.615 137.153 16.957 137.153 17.335C137.153 17.983 136.793 18.307 136.073 18.307C135.695 18.307 135.353 18.055 135.047 17.551C134.741 17.029 134.39 16.768 133.994 16.768C133.292 16.768 132.5 17.155 131.618 17.929V26.893C131.78 27.253 132.347 27.433 133.319 27.433V28H127.487Z" fill="#F0F2F0"/>
<path d="M142.406 16.12V16.687C141.884 16.687 141.506 16.723 141.272 16.795L144.485 24.706L147.563 16.984C147.311 16.786 146.807 16.687 146.051 16.687V16.12H150.479V16.687C149.507 16.687 148.949 16.849 148.805 17.173L143.378 30.754C143.036 31.6 142.595 32.212 142.055 32.59C141.533 32.986 141.029 33.184 140.543 33.184C140.093 33.184 139.733 33.067 139.463 32.833C139.211 32.599 139.085 32.32 139.085 31.996C139.085 31.726 139.175 31.483 139.355 31.267C139.553 31.051 139.814 30.943 140.138 30.943C140.336 30.943 140.543 31.015 140.759 31.159C140.975 31.321 141.137 31.402 141.245 31.402C141.623 31.402 141.875 31.24 142.001 30.916L143.162 28L138.869 17.227C138.707 16.867 138.14 16.687 137.168 16.687V16.12H142.406Z" fill="#F0F2F0"/>
<path d="M157.975 28V27.433C158.947 27.433 159.514 27.253 159.676 26.893V13.312C159.514 12.952 158.947 12.772 157.975 12.772V12.205H163.861V12.772C162.889 12.772 162.322 12.952 162.16 13.312V27.082H168.316C168.766 26.884 169.171 26.317 169.531 25.381H170.071L169.423 28H157.975Z" fill="#F0F2F0"/>
<path d="M171.343 28V27.433C172.315 27.433 172.882 27.253 173.044 26.893V13.312C172.882 12.952 172.315 12.772 171.343 12.772V12.205H177.229V12.772C176.257 12.772 175.69 12.952 175.528 13.312V27.082H181.684C182.134 26.884 182.539 26.317 182.899 25.381H183.439L182.791 28H171.343Z" fill="#F0F2F0"/>
<path d="M192.629 12.853C191.081 12.853 189.794 13.492 188.768 14.77C187.742 16.048 187.229 17.704 187.229 19.738C187.229 22.114 187.769 23.977 188.849 25.327C189.929 26.677 191.225 27.352 192.737 27.352C193.637 27.352 194.528 27.046 195.41 26.434C196.292 25.804 196.859 25.138 197.111 24.436L197.759 24.76C197.345 25.75 196.688 26.587 195.788 27.271C194.906 27.937 193.709 28.27 192.197 28.27C189.803 28.27 187.904 27.496 186.5 25.948C185.114 24.382 184.421 22.51 184.421 20.332C184.421 17.812 185.222 15.787 186.824 14.257C188.444 12.709 190.37 11.935 192.602 11.935C193.124 11.935 193.727 12.07 194.411 12.34C195.095 12.61 195.491 12.745 195.599 12.745C195.815 12.745 195.923 12.565 195.923 12.205H196.544L196.814 15.634H196.22C196.094 14.824 195.734 14.158 195.14 13.636C194.564 13.114 193.727 12.853 192.629 12.853Z" fill="#F0F2F0"/>
<path fill-rule="evenodd" clip-rule="evenodd" d="M17.1833 0.826843L33.9508 11.2092L31.4817 33.741H3.08662L0.308838 11.2092L17.1833 0.826843ZM2.04681 11.8174L4.93847 31.4074H29.3212L32.3197 11.8174L17.1833 2.39507L2.04681 11.8174Z" fill="#F0F2F0"/>
<path d="M13.7211 23.356C13.7211 23.986 13.6491 24.571 13.5051 25.111C13.3611 25.651 13.1271 26.173 12.8031 26.677C12.4971 27.163 12.0381 27.55 11.4261 27.838C10.8141 28.126 10.0851 28.27 9.23908 28.27C7.96108 28.27 6.96208 28.018 6.24208 27.514C5.54008 26.992 5.18908 26.434 5.18908 25.84C5.18908 25.426 5.29708 25.102 5.51308 24.868C5.72908 24.616 6.00808 24.49 6.35008 24.49C6.67408 24.49 6.95308 24.571 7.18708 24.733C7.43908 24.895 7.56508 25.129 7.56508 25.435C7.56508 26.047 7.34008 26.425 6.89008 26.569C7.37608 27.055 8.06908 27.298 8.96908 27.298C9.38308 27.298 9.73408 27.226 10.0221 27.082C10.3101 26.92 10.5351 26.722 10.6971 26.488C10.8591 26.236 10.9761 25.885 11.0481 25.435C11.1381 24.967 11.1921 24.526 11.2101 24.112C11.2281 23.68 11.2371 23.104 11.2371 22.384V13.312C11.0751 12.952 10.5081 12.772 9.53608 12.772V12.205H15.4221V12.772C14.4501 12.772 13.8831 12.952 13.7211 13.312V23.356Z" fill="#F0F2F0"/>
<path d="M28.25 28H16.586L25.172 13.015H18.611C18.251 13.177 18.071 13.744 18.071 14.716H17.504V12.205H28.385L19.799 27.19H27.143C27.701 26.956 28.115 26.362 28.385 25.408H28.952L28.25 28Z" fill="#F0F2F0"/>
</svg>
