<svg width="400" height="422" viewBox="0 0 400 422" fill="none" xmlns="http://www.w3.org/2000/svg">
<path d="M69.5631 416.551L395.56 64.5743C401.465 57.9532 400.923 47.7652 394.349 41.8175L352.689 4.12689C346.115 -1.82082 336 -1.27495 330.094 5.34621L4.09755 357.323C-1.80788 363.944 -1.26588 374.132 5.3082 380.079L46.9681 417.77C53.5422 423.718 63.6577 423.172 69.5631 416.551Z" fill="#F0F2F0"/>
<path d="M330.094 416.551L4.09744 64.5743C-1.80798 57.9532 -1.26597 47.7652 5.30811 41.8175L46.968 4.12689C53.5421 -1.82082 63.6576 -1.27495 69.563 5.34621L395.56 357.323C401.465 363.944 400.923 374.132 394.349 380.079L352.689 417.77C346.115 423.718 336 423.172 330.094 416.551Z" fill="#F0F2F0"/>
</svg>
