<svg width="448" height="424" viewBox="0 0 448 424" fill="none" xmlns="http://www.w3.org/2000/svg">
<path d="M16 88H432C440.837 88 448 80.837 448 72V16C448 7.163 440.837 0 432 0H16C7.163 0 0 7.163 0 16V72C0 80.837 7.163 88 16 88ZM16 264H432C440.837 264 448 256.837 448 248V192C448 183.163 440.837 176 432 176H16C7.163 176 0 183.163 0 192V248C0 256.837 7.163 264 16 264ZM16 424H432C440.837 424 448 416.837 448 408V352C448 343.163 440.837 336 432 336H16C7.163 336 0 343.163 0 352V408C0 416.837 7.163 424 16 424Z" fill="#F0F2F0"/>
</svg>
