<svg width="103" height="103" viewBox="0 0 103 103" fill="none" xmlns="http://www.w3.org/2000/svg">
<rect x="4" y="4" width="95" height="95" rx="47.5" fill="#F0F2F0"/>
<g clip-path="url(#clip0_496_238)">
<path d="M65.4092 37.106C65.4092 41.019 65.409 44.6304 65.4092 48.5435C63.9418 48.5435 62.7398 48.5435 61.2724 48.5435C61.2724 47.1348 61.2724 45.1483 61.2724 43.7396L55 50.5L52 47.5L58.5002 41.2065C57.0915 41.2065 55.3441 41.2065 53.9354 41.2065C53.9354 39.7391 53.9355 38.5733 53.9355 37.106C57.8486 37.106 61.4962 37.1072 65.4092 37.106Z" fill="#528152"/>
<path d="M36.7451 66.5732C40.6591 66.5732 44.1544 66.5732 48.0685 66.5732C48.0685 65.1059 48.0685 64.2175 48.0685 62.7501C46.6598 62.7501 44.9087 62.7501 43.5 62.7501L50 56L47 53L40.7286 59.8607C40.7286 58.4426 40.7286 56.7971 40.7286 55.379L36.7451 55.4072C36.7451 59.3222 36.7451 62.6582 36.7451 66.5732Z" fill="#528152"/>
<path d="M21.6523 36.0707V28H29.723C46.598 28 63.473 28 80.348 28C80.348 43.6522 80.348 59.3043 80.348 74.9565C68.0111 74.9565 21.6523 75 21.6523 75V36.0707ZM26.6345 33V70.2222H75.6175V33H26.6345Z" fill="#528152"/>
</g>
<rect x="4" y="4" width="95" height="95" rx="47.5" stroke="#528152" stroke-width="7"/>
<defs>
<clipPath id="clip0_496_238">
<rect width="60" height="46.9565" fill="white" transform="translate(21 28)"/>
</clipPath>
</defs>
</svg>
